<svg width="210" height="210" viewBox="0 0 210 210" fill="none" xmlns="http://www.w3.org/2000/svg">
<circle cx="105" cy="105" r="102.5" fill="#D6D6D6"/>
<path d="M173.936 88.0214H150.957V52.5957C150.957 49.085 148.085 46.2128 144.574 46.2128H132.348C131.127 32.231 118.562 21 103.404 21C88.2465 21 75.6819 32.231 74.4606 46.2128H63.1917C59.6809 46.2128 56.8087 49.085 56.8087 52.5957V88.0211H36.383C32.8722 88.0214 30 90.8936 30 94.4043V164.617C30 168.128 32.8722 171 36.383 171H84.5742H125.425H173.616C177.127 171 179.999 168.128 180.319 164.617V94.4043C180.319 90.8936 177.447 88.0214 173.936 88.0214ZM103.723 33.4468C112.131 33.4468 118.958 38.9787 120.137 46.2128H87.3091C88.4887 38.9787 95.315 33.4468 103.723 33.4468ZM69.2552 58.9787H138.191V88.0211H69.2552V58.9787ZM90.9572 158.553V135.894H119.042V158.553H90.9572ZM167.553 158.553H131.808V129.511C131.808 126 128.936 123.128 125.425 123.128H84.5742C81.0635 123.128 78.1913 126 78.1913 129.511V158.553H42.4468V100.787H167.553V158.553Z" fill="#010101"/>
</svg>
