<svg width="210" height="210" viewBox="0 0 210 210" fill="none" xmlns="http://www.w3.org/2000/svg">
<circle cx="105" cy="105" r="102.5" fill="#D6D6D6"/>
<path d="M182.463 118.229C179.242 107.822 169.902 100.081 158.667 99.2215V99.1395H158.667V99.1381L167.086 90.3922L146.166 70.9668V53.3062H152.417C155.868 53.3062 158.667 50.5079 158.667 47.0561C158.667 44.6341 157.286 42.5379 155.271 41.5002H160.75C164.202 41.5002 167 38.7019 167 35.2501C167 31.7983 164.202 29 160.75 29H131.584C128.132 29 125.334 31.7983 125.334 35.2501C125.334 37.6721 126.714 39.7683 128.729 40.806H123.25C120.739 40.806 118.579 42.2908 117.586 44.4273L104.5 32.2768L41.9139 90.3925L50.3334 99.0506V99.2218C39.0979 100.081 29.7579 107.823 26.5372 118.23C20.8476 121.453 17 127.564 17 134.556C17 144.895 25.4116 153.306 35.75 153.306H173.25C183.589 153.306 192 144.895 192 134.556C192 127.564 188.152 121.453 182.463 118.229ZM50.3334 140.806C45.7858 140.806 35.75 140.806 35.75 140.806C32.2981 140.806 29.4999 138.008 29.4999 134.556C29.4999 131.104 32.2981 128.306 35.75 128.306H37.9836C37.8862 127.625 37.8332 126.93 37.8332 126.223C37.8332 118.876 43.2661 112.801 50.3331 111.79L50.3334 140.806ZM133.667 53.3062V59.3601L127.147 53.3062H133.667ZM110.75 55.1382L144.675 86.6396H110.75V55.1382ZM98.2499 55.1382V86.6396H64.3252L98.2499 55.1382ZM110.75 140.806H98.2502V128.306H110.75V140.806ZM146.167 140.806H123.25V115.806H85.7501V140.806H62.8333V99.1395H146.167V140.806ZM173.25 140.806C173.25 140.806 163.214 140.806 158.667 140.806V111.79C165.734 112.801 171.166 118.876 171.166 126.223C171.166 126.931 171.113 127.625 171.016 128.306H173.25C176.702 128.306 179.5 131.105 179.5 134.556C179.5 138.008 176.702 140.806 173.25 140.806Z" fill="black"/>
</svg>
