<svg width="210" height="210" viewBox="0 0 210 210" fill="none" xmlns="http://www.w3.org/2000/svg">
<circle cx="105" cy="105" r="102.5" fill="#004BEC"/>
<path d="M175.283 109.979C174.603 108.064 172.976 106.931 171.274 106.166L160.674 101.988V60.7003C160.674 59.0076 160.002 57.3842 158.804 56.1872C157.607 54.9903 155.984 54.3178 154.29 54.3178H130.032V44.1059C130.032 42.7518 129.494 41.453 128.536 40.4955C127.579 39.5379 126.28 39 124.925 39H84.0694C82.7149 39 81.4159 39.5379 80.4582 40.4955C79.5004 41.453 78.9624 42.7518 78.9624 44.1059V54.3178H54.7042C53.0111 54.3178 51.3874 54.9903 50.1902 56.1872C48.993 57.3842 48.3204 59.0076 48.3204 60.7003V102.014L37.7617 106.182C36.0605 106.947 34.3848 108.096 33.7017 110.011C33.0186 111.926 32.6931 113.78 33.3825 116.074L49.677 164H50.0153C60.906 164 70.4433 158.444 77.2451 150.016C84.0502 158.444 93.5811 163.457 104.472 163.457C115.362 163.457 124.9 158.428 131.702 150C138.507 158.428 148.038 164 158.928 164H159.267L175.625 116.077C176.314 114.163 175.966 111.897 175.283 109.979ZM104.497 79.8476L58.5344 97.9833V65.8062C58.5344 65.4677 58.6689 65.143 58.9084 64.9036C59.1478 64.6642 59.4726 64.5297 59.8112 64.5297H149.183C149.522 64.5297 149.847 64.6642 150.086 64.9036C150.326 65.143 150.46 65.4677 150.46 65.8062V97.9609L104.497 79.8476Z" fill="black"/>
</svg>
