<svg width="210" height="210" viewBox="0 0 210 210" fill="none" xmlns="http://www.w3.org/2000/svg">
<circle cx="105" cy="105" r="102.5" fill="#D6D6D6" stroke="black" stroke-width="5"/>
<path d="M97.2497 138.002H161C165.141 138.002 168.5 134.643 168.5 130.502C168.5 101.507 144.994 78.0006 116 78.0006V63.0003H157.25C159.322 63.0003 161 61.3221 161 59.2502V51.7501C161 49.6782 159.322 48 157.25 48H59.7495C57.6776 48 55.9995 49.6782 55.9995 51.7501V59.2502C55.9995 61.3221 57.6776 63.0003 59.7495 63.0003H101V78.0006H52.2495L42.1244 64.5003C41.4166 63.5558 40.3033 63.0003 39.1244 63.0003H29.7517C27.3119 63.0003 25.5213 65.2925 26.1142 67.6598L33.4994 93.0009L70.9996 108.001L91.2497 135.002C91.9482 135.933 92.854 136.689 93.8955 137.21C94.9369 137.731 96.0853 138.002 97.2497 138.002ZM123.5 93.8236C138.16 96.8213 149.757 108.339 152.748 123.001H123.5V93.8236ZM174.915 155.536L169.723 150.332C168.259 148.865 165.917 148.903 164.417 150.335C162.755 151.922 161.173 152.972 158.642 152.972H82.2496C80.1777 152.972 78.4996 154.654 78.4996 156.729V164.243C78.4996 166.317 80.1777 168 82.2496 168H158.642C162.13 168 166.916 167.89 174.685 161.081C176.331 159.642 176.459 157.085 174.915 155.536Z" fill="black"/>
</svg>
