<svg width="210" height="210" viewBox="0 0 210 210" fill="none" xmlns="http://www.w3.org/2000/svg">
<circle cx="105" cy="105" r="102.5" fill="#FFE20A" stroke="black" stroke-width="5"/>
<path d="M177 39.0003C165.636 52.0518 165.411 65.7267 172.243 78.2523C149.763 68.447 125.195 64.7924 101.23 64.785C100.358 64.785 99.4896 64.785 98.6196 64.7939C84.9489 64.9392 71.5101 66.2466 58.7973 68.2421C95.9533 40.9089 137.842 39.452 177 39.0003ZM102.224 70.3648C124.742 70.4798 147.65 73.8972 168.535 82.692C156.783 90.1322 155.172 107.907 159.384 121.295C135.045 96.8571 95.8222 80.4693 62.2534 73.3304C75.0797 71.4381 88.5801 70.2954 102.224 70.3648ZM60.8138 78.6972C93.7507 85.7243 132.647 102.249 155.834 125.642C138.154 123.969 122.726 137.528 127.217 154.661C107.668 122.925 86.8268 99.7892 60.8138 78.6975V78.6972ZM57.5058 83.1638C82.7065 103.614 102.795 125.826 121.782 156.422C96.1462 142.21 65.1876 152.161 65.4686 179H38.8496L76.2547 130.619L77.2492 129.34L76.6082 127.838L57.5055 83.1644L57.5058 83.1638ZM54.4395 90.1061L70.8572 128.525L37 172.318V162.131C54.7172 134.603 57.2421 111.485 54.4395 90.1067V90.1061Z" fill="black"/>
</svg>
