<svg width="210" height="210" viewBox="0 0 210 210" fill="none" xmlns="http://www.w3.org/2000/svg">
<circle cx="105" cy="105" r="102.5" fill="#0B5C1C"/>
<path d="M49.6609 152.208C50.6174 126.438 62.6824 100.645 83.0193 81.6976C95.2622 70.2885 109.498 62.0266 125.331 57.1444C125.561 57.0719 125.794 57.0194 126.027 56.9516C125.809 56.3257 125.631 55.6797 125.393 55.0663C120.333 41.8922 110.873 31.6825 99.1128 25C86.0737 29.0459 74.1112 36.1913 64.039 46.1331C53.9896 56.07 45.8827 68.766 41.1683 83.5801C36.4615 98.3891 35.8455 113.216 38.7921 126.763C40.8155 135.976 44.4655 144.639 49.6609 152.208Z" fill="black"/>
<path d="M170.143 60.7017C156.071 58.9067 141.549 60.2186 127.596 64.4899C113.639 68.7986 100.151 76.2446 88.2616 87.3255C66.4175 107.68 55.6391 135.275 57.4869 161.188C54.4025 163.531 51.2853 165.85 48.0756 168.138C44.8334 170.414 41.6338 172.705 37.6406 174.963L43.3316 185C48.061 182.311 51.3681 179.915 54.7682 177.534C58.1157 175.148 61.3125 172.77 64.4672 170.371C89.1857 178.913 121.277 172.196 145.95 149.208C159.335 136.747 168.556 121.224 172.8 105.386C177.081 89.5636 176.232 73.498 170.143 60.7017ZM153.354 83.7155C147.112 92.8312 137.669 103.707 127.504 114.442C136.535 112.963 143.753 111.618 147.21 110.955C148.665 110.677 149.451 110.519 149.453 110.519C150.843 110.241 152.192 111.142 152.47 112.53C152.748 113.919 151.847 115.269 150.46 115.546C150.435 115.551 137.964 118.043 121.615 120.576C119.813 122.424 118.002 124.257 116.197 126.062C110.694 131.562 105.257 136.807 100.232 141.519C112.592 139.599 125.245 137.028 131.42 135.721C133.873 135.202 135.295 134.887 135.3 134.884C136.682 134.579 138.051 135.45 138.36 136.832C138.665 138.214 137.794 139.583 136.412 139.892C136.374 139.897 113.283 145.034 93.8923 147.62L93.5895 147.66C88.517 152.28 84.1757 156.063 81.076 158.599V158.601C79.9823 159.497 78.3648 159.335 77.4685 158.238C76.5723 157.144 76.7351 155.527 77.8316 154.631C81.0638 151.987 85.7907 147.853 91.3263 142.781C91.4841 141.669 91.657 140.267 91.837 138.632C92.1398 135.888 92.4626 132.554 92.7807 129.051C93.4195 122.048 94.0326 114.38 94.4232 109.367C94.6835 106.027 94.8438 103.874 94.8438 103.869C94.9488 102.457 96.1782 101.398 97.5904 101.503C99.0026 101.606 100.062 102.838 99.9567 104.25C99.9567 104.26 98.5145 123.726 97.2476 136.224C97.2051 136.642 97.1651 137.008 97.1226 137.406C101.997 132.827 107.265 127.744 112.573 122.436C114.445 120.564 116.32 118.663 118.191 116.748C118.957 113.684 119.518 108.797 119.853 103.899C120.226 98.599 120.374 93.2415 120.434 89.814C120.474 87.5305 120.474 86.1161 120.474 86.1133C120.474 84.6965 121.621 83.5496 123.038 83.5496C124.455 83.5496 125.602 84.6965 125.602 86.1133C125.599 86.1583 125.607 99.1574 124.505 109.635C124.483 109.838 124.457 110.031 124.435 110.231C134.252 99.8209 143.29 89.3555 149.123 80.8205C149.922 79.6515 151.517 79.3536 152.686 80.1521C153.855 80.9511 154.152 82.5461 153.354 83.7155Z" fill="black"/>
</svg>
