<svg width="210" height="210" viewBox="0 0 210 210" fill="none" xmlns="http://www.w3.org/2000/svg">
<circle cx="105" cy="105" r="102.5" fill="#D6D6D6" stroke="black" stroke-width="5"/>
<path d="M108.169 35H99.3898V173.869H108.169V35Z" fill="black"/>
<path d="M58.3022 58.2019C64.7086 58.2019 69.9032 53.0075 69.9032 46.5985C69.9032 40.192 64.7088 35 58.3022 35C51.8905 35 46.7012 40.192 46.7012 46.5985C46.7012 53.0075 51.8905 58.2019 58.3022 58.2019Z" fill="black"/>
<path d="M80.9181 74.7481C78.5667 66.8095 73.3003 61.5486 67.37 61.5486C62.9772 61.5486 58.3026 61.5486 58.3026 61.5486C58.3026 61.5486 53.628 61.5486 49.2355 61.5486C43.3049 61.5486 38.0329 66.8098 35.6815 74.7481L27.14 105.056C26.5093 107.609 28.0693 110.215 30.6196 110.84C33.1755 111.471 35.7314 109.977 36.3618 107.424L44.8761 77.2097H47.3877L32.5723 129.766H46.5411V168.751C46.5411 171.73 48.9586 174.145 51.9349 174.145C54.9168 174.145 57.3341 171.73 57.3341 168.751V129.766H60.3051V168.751C60.3051 171.73 62.7227 174.145 65.7045 174.145C68.6808 174.145 71.0984 171.73 71.0984 168.751V129.766H84.0271L69.2119 77.21H71.7236L80.2376 107.424C80.868 109.977 83.4295 111.471 85.9798 110.84C88.5356 110.215 90.0901 107.609 89.4594 105.056L80.9181 74.7481Z" fill="black"/>
<path d="M150.977 58.2019C157.389 58.2019 162.578 53.0075 162.578 46.5985C162.578 40.192 157.389 35 150.977 35C144.571 35 139.376 40.192 139.376 46.5985C139.377 53.0075 144.571 58.2019 150.977 58.2019Z" fill="black"/>
<path d="M165.261 61.4772H134.779C129.159 61.4772 123.04 67.5956 123.04 73.2165V112.21C123.04 115.021 125.319 117.3 128.129 117.3C130.94 117.3 133.219 115.021 133.219 112.21V80.1512H135.564V167.183C135.564 170.876 138.557 173.869 142.253 173.869C145.948 173.869 148.941 170.876 148.941 167.183V116.674H151.099V167.183C151.099 170.876 154.091 173.869 157.787 173.869C161.477 173.869 164.475 170.876 164.475 167.183V80.1512H166.821V112.21C166.821 115.02 169.1 117.3 171.91 117.3C174.721 117.3 177 115.02 177 112.21V73.2162C177.001 67.5956 170.882 61.4772 165.261 61.4772Z" fill="black"/>
</svg>
