<svg width="210" height="210" viewBox="0 0 210 210" fill="none" xmlns="http://www.w3.org/2000/svg">
<circle cx="105" cy="105" r="102.5" fill="#D6D6D6" stroke="black" stroke-width="5"/>
<path d="M192 111H39.3128C39.1057 111 38.9018 110.958 38.7127 110.874L18.4269 102.03C17.3437 101.874 16.2789 102.315 15.619 103.176C14.9591 104.037 14.815 105.186 15.2439 106.182L24.2438 127.181C24.7177 128.285 25.8009 128.999 27.0008 128.999H192C193.656 128.999 195 127.655 195 126V114C195 112.344 193.656 111 192 111Z" fill="black"/>
<path d="M170.535 103.137L165.57 83.2739C165.234 81.9359 164.034 81 162.657 81H50.3437C48.9666 81 47.7667 81.9359 47.4338 83.2711L42.4659 103.137C42.2289 104.082 42.9458 105 43.921 105H97.5007C98.3286 105 99.0008 104.328 99.0008 103.5V88.4999C99.0008 87.6719 99.6726 86.9997 100.501 86.9997H112.501C113.329 86.9997 114.001 87.6716 114.001 88.4999V103.5C114.001 104.328 114.673 105 115.501 105H169.081C170.055 105 170.772 104.082 170.535 103.137ZM60.7566 95.934C60.5105 95.9969 60.2647 96.024 60.0246 96.024C58.6778 96.024 57.4445 95.1148 57.1024 93.7529C56.7006 92.1448 57.6635 90.5189 59.2716 90.1198L59.3014 90.1139C60.9063 89.718 62.5383 90.6869 62.9405 92.2978C63.3426 93.903 62.3646 95.5318 60.7566 95.934ZM72.0244 96.0299C70.3686 96.0299 69.0095 94.6859 69.0095 93.0301C69.0095 91.3742 70.3384 90.0302 71.9946 90.0302H72.0244C73.6803 90.0302 75.0243 91.3742 75.0243 93.0301C75.0247 94.6859 73.6835 96.0299 72.0244 96.0299ZM87.0006 93.0297C87.0006 94.6856 85.6566 96.0296 84.0007 96.0296C82.3449 96.0296 81.0009 94.6856 81.0009 93.0297C81.0009 91.3739 82.3449 90.0147 84.0007 90.0147C85.6566 90.0147 87.0006 91.3436 87.0006 92.9998V93.0297ZM131.61 94.4637C131.061 95.4537 130.041 96.0117 128.988 96.0117C128.499 96.0117 128.001 95.8918 127.542 95.6365L127.515 95.6214C126.069 94.8174 125.547 92.9903 126.351 91.5416C127.155 90.0984 128.979 89.5707 130.431 90.3775C131.877 91.1819 132.414 93.015 131.61 94.4637ZM141.03 95.9997H141C139.345 95.9997 138.001 94.6557 138.001 92.9998C138.001 91.344 139.345 90 141 90C142.656 90 144.015 91.344 144.015 92.9998C144.015 94.6557 142.686 95.9997 141.03 95.9997ZM153.03 96.0029H153C151.344 96.0029 150 94.6589 150 93.003C150 91.3471 151.344 90.0031 153 90.0031C154.656 90.0031 156.015 91.3471 156.015 93.003C156.015 94.6589 154.686 96.0029 153.03 96.0029Z" fill="black"/>
</svg>
