<svg width="210" height="210" viewBox="0 0 210 210" fill="none" xmlns="http://www.w3.org/2000/svg">
<circle cx="105" cy="105" r="102.5" fill="#D6D6D6"/>
<path d="M191 112.024V99.2196H152.585L144.049 69.3415H116.305V60.8047H139.78V48H33.0731V60.8047H56.5487V69.3415H28.8047V94.9513H16V133.366H28.8047V146.171H41.7305C42.7924 155.774 50.9306 163.244 60.8171 163.244C70.7036 163.244 78.8418 155.774 79.9037 146.171H127.097C128.159 155.774 136.297 163.244 146.183 163.244C156.07 163.244 164.208 155.774 165.27 146.171H191V124.829H178.195V112.024H191ZM41.6098 99.2193V82.1462H62.9513V99.2193H41.6098ZM60.8171 153.64C55.5127 153.64 51.2133 149.341 51.2133 144.036C51.2133 138.732 55.5127 134.433 60.8171 134.433C66.1214 134.433 70.4209 138.732 70.4209 144.036C70.4206 149.341 66.1214 153.64 60.8171 153.64ZM97.0975 99.2193H75.756V82.1462H97.0975V99.2193ZM103.5 69.3415H69.3538V60.8047H103.5V69.3415ZM109.903 99.2193V82.1462H134.39L139.268 99.2193H109.903ZM146.183 153.64C140.879 153.64 136.579 149.341 136.579 144.036C136.579 138.732 140.879 134.433 146.183 134.433C151.487 134.433 155.787 138.732 155.787 144.036C155.787 149.341 151.487 153.64 146.183 153.64Z" fill="black"/>
</svg>
