<svg width="210" height="210" viewBox="0 0 210 210" fill="none" xmlns="http://www.w3.org/2000/svg">
<circle cx="105" cy="105" r="102.5" fill="#6C0202"/>
<path d="M144.302 137.457C145.663 141.765 143.025 158.112 138.259 164.88C138.259 164.264 132.131 151.345 127.364 152.575C122.597 153.809 124.415 164.88 121.012 166.725C120.329 162.42 116.926 152.575 112.159 153.808C107.395 155.037 108.756 162.419 106.031 165.493C103.309 162.419 104.67 155.038 99.9033 153.808C95.1392 152.574 91.7335 162.419 91.0532 166.725C87.6503 164.88 89.4654 153.808 84.6985 152.575C79.9317 151.345 73.804 164.264 73.804 164.88C69.0374 158.112 66.3996 141.765 67.7608 137.457C69.1219 133.151 63.9365 131.588 60.2719 134.996C47.338 146.684 49.3798 168.218 49.3798 168.218C49.3798 176.829 60.2719 182.496 78.6553 180.651C97.039 178.804 106.031 178.188 106.031 178.188C106.031 178.188 115.024 178.804 133.407 180.651C151.791 182.496 162.685 176.83 162.685 168.219C162.685 168.219 164.725 146.684 151.791 134.997C148.129 131.588 142.94 133.152 144.302 137.457Z" fill="black"/>
<path d="M152.548 41.2486C132.29 43.2777 106.031 43.9534 106.031 43.9534C106.031 43.9534 79.7722 43.2777 59.5138 41.2486C39.2554 39.2194 40.0035 50.0412 40.0035 58.1538C40.0035 58.1538 42.307 92.3031 62.2635 108.872C66.3 112.619 72.0186 110.899 70.518 106.164C69.0171 101.433 65.2653 71.6785 70.518 64.2416C70.518 64.9173 75.2695 79.1177 80.5201 77.7639C85.7728 76.4126 85.7728 64.2416 89.5249 62.2124C90.2755 66.9467 94.0273 77.7639 99.2776 76.4128C104.53 75.059 103.032 66.9467 106.031 63.5638C109.033 66.9467 107.532 75.059 112.785 76.4128C118.035 77.7641 121.79 66.9467 122.538 62.2124C126.29 64.2419 126.29 76.4128 131.542 77.7639C136.793 79.1177 141.544 64.9173 141.544 64.2416C146.8 71.6807 143.045 101.433 141.544 106.167C140.046 110.898 145.762 112.619 149.799 108.872C169.755 92.3031 172.059 58.1538 172.059 58.1538C172.059 50.0412 172.807 39.2194 152.548 41.2486Z" fill="black"/>
</svg>
